<svg width="90" height="124" viewBox="0 0 90 124" fill="none" xmlns="http://www.w3.org/2000/svg">
<path d="M6.93148 20.9121C8.42909 18.5669 11.7736 18.2738 13.7494 20.236C13.7717 20.2557 13.7915 20.2779 13.8138 20.3001C15.2623 21.7381 15.5261 23.9758 14.4319 25.6954C10.4713 31.9212 8.5154 39.2238 8.96051 46.879C9.51876 56.4722 14.2371 65.3672 21.3762 71.8458C27.244 77.1685 31.0052 84.2712 32.0664 91.8533H58.9776C60.0144 83.8964 63.8375 76.4707 69.9977 70.595C73.194 67.547 76.0274 64.0897 77.7926 60.0527C88.813 34.8588 70.7244 9.99994 46.7258 8.89403C40.4794 8.61652 34.4406 9.89813 29.027 12.5652C27.37 13.3821 25.3699 12.9991 24.0605 11.6999L23.9961 11.6358C21.8296 9.48639 22.501 5.90345 25.2431 4.55575C31.9462 1.26345 39.4112 -0.322351 47.135 0.0544979C72.8777 1.24128 93.1639 24.3342 89.5906 50.7591C88.2259 60.852 83.1645 70.1172 75.8655 77.2654C70.5316 82.4892 67.5966 89.2195 67.5921 96.2597C67.59 98.7064 65.7691 100.704 63.3082 100.704H30.6241C25.5094 100.704 23.4606 98.8098 23.4758 96.4207C23.518 89.5385 20.4678 82.8746 15.1203 78.155C5.51109 69.6718 0 57.4956 0 44.7468C-0.00206757 36.1429 2.42583 27.968 6.93148 20.9121Z" fill="url(#paint0_linear_2223_600)"/>
<path d="M28.356 103.277H63.468C65.9268 103.277 67.9183 105.259 67.9183 107.701C67.9183 110.143 65.9268 112.126 63.468 112.126H28.356C25.8971 112.126 23.9057 110.144 23.9057 107.701C23.9057 105.259 25.8971 103.277 28.356 103.277Z" fill="url(#paint1_linear_2223_600)"/>
<path d="M34.8308 115.151H56.9932C59.452 115.151 61.4435 117.133 61.4435 119.576C61.4435 122.018 59.452 124 56.9932 124H34.8333C32.3744 124 30.383 122.018 30.383 119.576C30.383 117.133 32.3719 115.151 34.8308 115.151Z" fill="url(#paint2_linear_2223_600)"/>
<defs>
<linearGradient id="paint0_linear_2223_600" x1="-3.1654e-06" y1="-5.09589" x2="123.257" y2="67.6503" gradientUnits="userSpaceOnUse">
<stop stop-color="#A8C1FF"/>
<stop offset="1" stop-color="#FFB75F"/>
</linearGradient>
<linearGradient id="paint1_linear_2223_600" x1="-3.1654e-06" y1="-5.09589" x2="123.257" y2="67.6503" gradientUnits="userSpaceOnUse">
<stop stop-color="#A8C1FF"/>
<stop offset="1" stop-color="#FFB75F"/>
</linearGradient>
<linearGradient id="paint2_linear_2223_600" x1="-3.1654e-06" y1="-5.09589" x2="123.257" y2="67.6503" gradientUnits="userSpaceOnUse">
<stop stop-color="#A8C1FF"/>
<stop offset="1" stop-color="#FFB75F"/>
</linearGradient>
</defs>
</svg>
