<svg width="134" height="132" viewBox="0 0 134 132" fill="none" xmlns="http://www.w3.org/2000/svg">
<path d="M8.85318 48.1581C9.55382 50.5602 10.5261 52.8766 11.7558 55.05L8.25264 59.4683C7.10874 60.9125 7.23743 62.9715 8.52431 64.2727L14.5583 70.3067C15.8595 71.6079 17.9185 71.7221 19.3627 70.5782L23.7524 67.1037C26.0116 68.405 28.4138 69.42 30.916 70.135L31.5738 75.783C31.7882 77.6132 33.3325 78.9859 35.1627 78.9859H43.699C45.5293 78.9859 47.0735 77.613 47.288 75.783L47.9171 70.3352C50.6053 69.6345 53.1791 68.5907 55.5955 67.2323L59.8422 70.5925C61.2864 71.7364 63.3454 71.6077 64.6466 70.3209L70.6806 64.2868C71.9818 62.9856 72.0962 60.9266 70.9523 59.4825L67.6493 55.293C69.022 52.9192 70.0944 50.3885 70.8093 47.7433L75.8996 47.157C77.73 46.9425 79.1025 45.3983 79.1025 43.5681V35.0317C79.1025 33.2015 77.7299 31.6573 75.8996 31.4428L70.8808 30.8565C70.1943 28.2399 69.165 25.7376 67.8496 23.3926L70.9381 19.4891C72.082 18.0449 71.9533 15.9859 70.6665 14.6847L64.6467 8.66499C63.3456 7.36381 61.2865 7.24943 59.8424 8.39332L56.0532 11.396C53.5939 9.95187 50.9628 8.85088 48.2033 8.10735L47.6313 3.2029C47.4168 1.37267 45.8726 0 44.0423 0H35.506C33.6758 0 32.1316 1.37267 31.9171 3.2029L31.3451 8.10735C28.514 8.86518 25.8115 10.0091 23.295 11.5104L19.3628 8.39332C17.9187 7.24943 15.8597 7.37811 14.5585 8.66499L8.52446 14.699C7.22328 16.0002 7.10889 18.0592 8.25278 19.5034L11.5415 23.6643C10.226 26.0379 9.22509 28.5687 8.56735 31.1997L3.30544 31.8002C1.47521 32.0147 0.102539 33.559 0.102539 35.3892V43.9255C0.102539 45.7557 1.47521 47.3 3.30544 47.5145L8.85318 48.1581ZM39.7812 25.0657C47.5597 25.0657 53.894 31.4 53.894 39.1785C53.894 46.957 47.5597 53.2913 39.7812 53.2913C32.0029 53.2913 25.6684 46.957 25.6684 39.1785C25.6684 31.4 32.0027 25.0657 39.7812 25.0657Z" fill="url(#paint0_linear_2223_592)"/>
<path d="M124.172 50.2598L119.667 46.4564C118.281 45.2839 116.236 45.3411 114.92 46.5851L112.432 48.9158C110.331 47.9006 108.1 47.1856 105.798 46.771L105.098 43.3393C104.74 41.5663 103.096 40.3366 101.294 40.4796L95.4171 40.98C93.6154 41.1373 92.1999 42.6101 92.1427 44.426L92.0284 47.9149C89.7691 48.7299 87.6386 49.8452 85.694 51.2464L82.72 49.2732C81.204 48.2723 79.1881 48.5583 78.0157 49.9453L74.2123 54.4779C73.0396 55.8649 73.0968 57.9096 74.3407 59.2251L76.9432 61.9989C76.0422 64.0293 75.3988 66.16 75.0272 68.3475L71.3095 69.1053C69.5365 69.4628 68.3068 71.1072 68.4498 72.9089L68.9502 78.7857C69.1075 80.5873 70.5803 82.0029 72.3962 82.0601L76.4141 82.1886C77.1436 84.1046 78.1015 85.9207 79.2596 87.6221L77.0148 91.0109C76.0139 92.5266 76.2999 94.5427 77.6867 95.7152L82.1908 99.5186C83.5779 100.691 85.6225 100.634 86.9381 99.3899L89.8836 96.6303C91.8139 97.5311 93.8442 98.2031 95.9318 98.6035L96.747 102.636C97.1044 104.409 98.7488 105.638 100.55 105.495L106.427 104.995C108.229 104.838 109.644 103.365 109.702 101.549L109.83 97.6025C111.975 96.8446 114.005 95.8151 115.878 94.5427L119.124 96.6875C120.64 97.6884 122.656 97.4024 123.829 96.0154L127.632 91.5114C128.804 90.1244 128.747 88.0797 127.503 86.7642L124.887 83.9904C125.845 81.96 126.546 79.8152 126.946 77.6131L130.52 76.8838C132.293 76.5264 133.523 74.882 133.38 73.0802L132.88 67.2035C132.722 65.4018 131.25 63.9863 129.434 63.9291L125.845 63.8147C125.101 61.7271 124.1 59.754 122.856 57.9236L124.815 54.9781C125.845 53.4627 125.559 51.4323 124.172 50.2598ZM102.023 84.2333C95.6746 84.7768 90.0692 80.0438 89.5403 73.6954C88.9968 67.3468 93.73 61.7415 100.078 61.2125C106.427 60.6691 112.032 65.4021 112.561 71.7506C113.105 78.0993 108.372 83.7044 102.023 84.2333Z" fill="url(#paint1_linear_2223_592)"/>
<path d="M29.4152 100.048C27.6136 100.234 26.2266 101.749 26.2123 103.565L26.1694 107.183C26.1408 108.999 27.4849 110.543 29.2865 110.772L31.9461 111.115C32.3893 112.731 33.0185 114.275 33.8335 115.733L32.1176 117.85C30.9737 119.265 31.0595 121.296 32.3321 122.597L34.863 125.185C36.1356 126.486 38.166 126.629 39.6101 125.514L41.7405 123.869C43.2419 124.756 44.8292 125.457 46.4877 125.943L46.7736 128.688C46.9595 130.49 48.4752 131.877 50.2911 131.891L53.9088 131.934C55.7246 131.962 57.269 130.618 57.4978 128.817L57.8266 126.214C59.6284 125.771 61.3443 125.099 62.9742 124.213L64.976 125.828C66.3916 126.972 68.4221 126.886 69.7233 125.614L72.3113 123.083C73.6125 121.81 73.7555 119.78 72.6404 118.336L71.1101 116.348C72.0538 114.775 72.7832 113.102 73.2837 111.344L75.6572 111.1C77.4589 110.915 78.8457 109.399 78.8601 107.583L78.9029 103.965C78.9316 102.15 77.5876 100.605 75.7859 100.376L73.4694 100.076C73.0261 98.3316 72.3685 96.6444 71.5106 95.0715L72.9548 93.2985C74.0987 91.8829 74.0129 89.8525 72.7403 88.5513L70.2096 85.9633C68.937 84.662 66.9063 84.519 65.4623 85.6344L63.732 86.9642C62.1021 85.9776 60.3575 85.2198 58.5274 84.705L58.2985 82.4601C58.1126 80.6583 56.5971 79.2715 54.781 79.2572L51.1635 79.2143C49.3475 79.1857 47.8033 80.5298 47.5744 82.3314L47.2884 84.5622C45.4011 85.0482 43.5852 85.7918 41.8979 86.764L40.1106 85.3055C38.695 84.1617 36.6645 84.2476 35.3633 85.52L32.7609 88.0653C31.4598 89.3378 31.3168 91.3683 32.4321 92.8123L33.962 94.7857C33.0755 96.3586 32.3749 98.0314 31.9173 99.7902L29.4152 100.048ZM52.7649 95.9581C57.9553 96.0152 62.1161 100.291 62.0591 105.481C62.0019 110.672 57.7264 114.832 52.536 114.775C47.3456 114.718 43.1848 110.443 43.2419 105.252C43.2992 100.062 47.5745 95.901 52.7649 95.9581Z" fill="url(#paint2_linear_2223_592)"/>
<defs>
<linearGradient id="paint0_linear_2223_592" x1="79.1025" y1="-3.24599" x2="-8.69918" y2="68.1637" gradientUnits="userSpaceOnUse">
<stop stop-color="#A8C1FF"/>
<stop offset="1" stop-color="#FFB75F"/>
</linearGradient>
<linearGradient id="paint1_linear_2223_592" x1="133.391" y1="37.7954" x2="61.1158" y2="96.4897" gradientUnits="userSpaceOnUse">
<stop stop-color="#A8C1FF"/>
<stop offset="1" stop-color="#FFB75F"/>
</linearGradient>
<linearGradient id="paint2_linear_2223_592" x1="78.9033" y1="77.0473" x2="20.2976" y2="124.716" gradientUnits="userSpaceOnUse">
<stop stop-color="#A8C1FF"/>
<stop offset="1" stop-color="#FFB75F"/>
</linearGradient>
</defs>
</svg>
