<svg width="392" height="377" viewBox="0 0 392 377" fill="none" xmlns="http://www.w3.org/2000/svg">
<mask id="mask0_2223_354" style="mask-type:alpha" maskUnits="userSpaceOnUse" x="0" y="0" width="392" height="377">
<path d="M374.651 65.0262L324.63 16.2091C302.489 -5.28969 266.537 -5.43488 244.347 15.9672L188.843 69.3695C166.617 90.7594 166.518 125.603 188.598 147.09L220.318 117.037C217.104 107.467 221.066 96.5062 228.917 88.9205L264.231 54.9603C275.418 44.2532 293.363 44.3016 304.403 55.0813L334.443 84.3594C345.482 95.1391 345.433 112.5 334.32 123.232L299.006 157.216C291.535 164.402 279.269 168.346 269.751 165.818L238.68 195.894C260.796 217.442 296.724 217.538 318.963 196.136L374.406 142.783C396.693 121.356 396.767 86.5492 374.651 65.0262Z" fill="url(#paint0_linear_2223_354)"/>
<path d="M171.425 260.464C174.062 269.816 169.842 281.914 162.201 289.27L129.217 321.052C117.907 331.941 99.6063 331.88 88.3459 320.907L57.705 291.133C46.4692 280.172 46.5428 262.351 57.8522 251.511L90.8605 219.728C98.9071 212.022 110.462 208.102 120.545 211.392L152.363 180.3C129.842 158.389 93.191 158.281 70.5722 180.058L17.0549 231.597C-5.58852 253.41 -5.69891 288.871 16.8095 310.829L67.7633 360.517C90.2594 382.403 126.886 382.512 149.554 360.735L203.072 309.196C225.69 287.358 225.788 251.922 203.317 229.988L171.425 260.464Z" fill="url(#paint1_linear_2223_354)"/>
<path d="M136.638 246.284C144.133 253.749 156.399 253.822 164.041 246.381L255.485 156.659C263.103 149.195 263.152 137.12 255.584 129.632C248.064 122.191 235.823 122.143 228.23 129.559L136.761 219.256C129.156 226.697 129.107 238.771 136.638 246.284Z" fill="url(#paint2_linear_2223_354)"/>
</mask>
<g mask="url(#mask0_2223_354)">
<rect x="-47.4111" y="-46.2769" width="489.567" height="458.683" fill="url(#paint3_linear_2223_354)"/>
</g>
<defs>
<linearGradient id="paint0_linear_2223_354" x1="391.18" y1="-8.71733" x2="153.954" y2="190.508" gradientUnits="userSpaceOnUse">
<stop stop-color="#1F5EFF"/>
<stop offset="1" stop-color="#FFB75F"/>
</linearGradient>
<linearGradient id="paint1_linear_2223_354" x1="220.103" y1="155.034" x2="-18.3165" y2="355.181" gradientUnits="userSpaceOnUse">
<stop stop-color="#1F5EFF"/>
<stop offset="1" stop-color="#FFB75F"/>
</linearGradient>
<linearGradient id="paint2_linear_2223_354" x1="261.229" y1="118.768" x2="118.563" y2="236.871" gradientUnits="userSpaceOnUse">
<stop stop-color="#1F5EFF"/>
<stop offset="1" stop-color="#FFB75F"/>
</linearGradient>
<linearGradient id="paint3_linear_2223_354" x1="442.156" y1="-65.1269" x2="-73.4651" y2="382.387" gradientUnits="userSpaceOnUse">
<stop stop-color="#1F5EFF"/>
<stop offset="1" stop-color="#FFB75F"/>
</linearGradient>
</defs>
</svg>
