<svg width="134" height="134" viewBox="0 0 134 134" fill="none" xmlns="http://www.w3.org/2000/svg">
<path d="M2.90955 90.0152L19.5132 80.9579L2.90981 71.9015C-0.969635 69.7852 -0.969894 64.2145 2.90955 62.0983L19.5132 53.0413L2.90981 43.9848C-0.969894 41.8685 -0.969894 36.2979 2.90981 34.1816L64.3264 0.68171C65.993 -0.227237 68.007 -0.227237 69.6736 0.68171L131.09 34.1816C134.97 36.2979 134.97 41.8685 131.09 43.9848L114.487 53.0413L131.09 62.0983C134.97 64.2145 134.97 69.7852 131.09 71.9015L114.487 80.9579L131.09 90.0152C134.97 92.1315 134.97 97.7021 131.09 99.8184L69.6736 133.318C68.007 134.227 65.993 134.227 64.3264 133.318L2.90981 99.8184C-0.969894 97.7021 -0.969894 92.1315 2.90955 90.0152ZM66.9999 11.9434L17.2431 39.0833L66.9999 66.2235L116.757 39.0833L66.9999 11.9434ZM102.828 59.4015L69.6733 77.4849C69.5754 77.5383 69.4762 77.5878 69.3763 77.6349C69.3697 77.6381 69.3634 77.6417 69.3569 77.6446C69.3108 77.6661 69.2637 77.6844 69.2171 77.7045C69.1357 77.7399 69.0544 77.7739 68.9716 77.805C68.7895 77.8739 68.6047 77.933 68.4176 77.9822C68.4014 77.9864 68.3851 77.9922 68.3689 77.9961C68.0436 78.0785 67.7123 78.1298 67.3796 78.1526C67.1265 78.1699 66.8724 78.1699 66.6193 78.1526C66.2867 78.1298 65.9556 78.0783 65.63 77.9961C65.6135 77.9919 65.5976 77.9864 65.5814 77.9822C65.3945 77.933 65.2097 77.8739 65.0273 77.805C64.9449 77.7739 64.8632 77.7396 64.7818 77.7045C64.7352 77.6844 64.6881 77.6663 64.642 77.6446C64.6355 77.6415 64.6292 77.6378 64.6227 77.6349C64.5227 77.5878 64.4235 77.5383 64.3256 77.4849L31.1712 59.4015L17.242 66.9997L66.9999 94.1399L116.757 66.9997L102.828 59.4015ZM66.9999 122.057L116.757 94.9164L102.828 87.3182L69.6733 105.402C69.5754 105.455 69.4762 105.504 69.3763 105.552C69.3697 105.555 69.3634 105.558 69.3569 105.561C69.3108 105.583 69.2637 105.601 69.2171 105.621C69.1357 105.657 69.0544 105.691 68.9716 105.722C68.7895 105.791 68.6047 105.85 68.4176 105.899C68.4014 105.903 68.3851 105.909 68.3689 105.913C68.3516 105.917 68.3341 105.92 68.3168 105.924C67.4513 106.134 66.5476 106.134 65.6821 105.924C65.6648 105.92 65.6473 105.917 65.63 105.913C65.6135 105.909 65.5976 105.903 65.5814 105.899C65.3945 105.85 65.2097 105.791 65.0273 105.722C64.9449 105.691 64.8632 105.656 64.7818 105.621C64.7352 105.601 64.6881 105.583 64.642 105.561C64.6355 105.558 64.6292 105.554 64.6227 105.552C64.5227 105.504 64.4235 105.455 64.3256 105.402L31.1712 87.3182L17.242 94.9164L66.9999 122.057Z" fill="url(#paint0_linear_2223_605)"/>
<defs>
<linearGradient id="paint0_linear_2223_605" x1="-4.71293e-06" y1="-5.50685" x2="148.951" y2="115.614" gradientUnits="userSpaceOnUse">
<stop stop-color="#A8C1FF"/>
<stop offset="1" stop-color="#FFB75F"/>
</linearGradient>
</defs>
</svg>
